<?xml version="1.0" encoding="UTF-8"?>
<svg width="24px" height="24px" viewBox="0 0 24 24" version="1.1" xmlns="http://www.w3.org/2000/svg" xmlns:xlink="http://www.w3.org/1999/xlink">
    <!-- Generator: Sketch 53.2 (72643) - https://sketchapp.com -->
    <title>Untitled</title>
    <desc>Created with Sketch.</desc>
    <defs>
        <polygon id="path-1" points="0 0 22 0 22 14 0 14"></polygon>
    </defs>
    <g id="Page-1" stroke="none" stroke-width="1" fill="none" fill-rule="evenodd">
        <g id="icon/visibility/off">
            <g id="Group-3" transform="translate(1.000000, 5.000000)">
                <mask id="mask-2" fill="white">
                    <use xlink:href="#path-1"></use>
                </mask>
                <g id="Clip-2"></g>
                <path d="M10.9997795,10.0432977 C9.21345656,10.0432977 7.76234487,8.68149466 7.76234487,7 C7.76234487,5.31850534 9.21345656,3.95255042 10.9997795,3.95255042 C12.7861024,3.95255042 14.2328034,5.31850534 14.2328034,7 C14.2328034,8.68149466 12.7861024,10.0432977 10.9997795,10.0432977 M10.9997795,0 C3.45355761,0 0,7 0,7 C0,7 3.45355761,14 10.9953688,14 C18.5464424,14 22,7 22,7 C22,7 18.5464424,0 10.9997795,0" id="Fill-1" fill="#727272" mask="url(#mask-2)"></path>
            </g>
        </g>
    </g>
</svg>