<?xml version="1.0" encoding="UTF-8"?>
<svg width="19px" height="20px" viewBox="0 0 19 20" version="1.1" xmlns="http://www.w3.org/2000/svg" xmlns:xlink="http://www.w3.org/1999/xlink">
    <!-- Generator: Sketch 53.2 (72643) - https://sketchapp.com -->
    <title>Untitled</title>
    <desc>Created with Sketch.</desc>
    <defs>
        <path d="M16.4731144,10.536 C16.5091144,10.236 16.5331144,9.924 16.5331144,9.6 C16.5331144,9.276 16.5091144,8.964 16.4611144,8.664 L18.4891144,7.08 C18.6691144,6.936 18.7171144,6.672 18.6091144,6.468 L16.6891144,3.144 C16.5691144,2.928 16.3171144,2.856 16.1011144,2.928 L13.7131144,3.888 C13.2091144,3.504 12.6811144,3.192 12.0931144,2.952 L11.7331144,0.408 C11.6971144,0.168 11.4931144,0 11.2531144,0 L7.41311439,0 C7.17311439,0 6.98111439,0.168 6.94511439,0.408 L6.58511439,2.952 C5.99711439,3.192 5.45711439,3.516 4.96511439,3.888 L2.57711439,2.928 C2.36111439,2.844 2.10911439,2.928 1.98911439,3.144 L0.0691143891,6.468 C-0.0508856109,6.684 -0.00288561094,6.936 0.189114389,7.08 L2.21711439,8.664 C2.16911439,8.964 2.13311439,9.288 2.13311439,9.6 C2.13311439,9.912 2.15711439,10.236 2.20511439,10.536 L0.177114389,12.12 C-0.00288561094,12.264 -0.0508856109,12.528 0.0571143891,12.732 L1.97711439,16.056 C2.09711439,16.272 2.34911439,16.344 2.56511439,16.272 L4.95311439,15.312 C5.45711439,15.696 5.98511439,16.008 6.57311439,16.248 L6.93311439,18.792 C6.98111439,19.032 7.17311439,19.2 7.41311439,19.2 L11.2531144,19.2 C11.4931144,19.2 11.6971144,19.032 11.7211144,18.792 L12.0811144,16.248 C12.6691144,16.008 13.2091144,15.684 13.7011144,15.312 L16.0891144,16.272 C16.3051144,16.356 16.5571144,16.272 16.6771144,16.056 L18.5971144,12.732 C18.7171144,12.516 18.6691144,12.264 18.4771144,12.12 L16.4731144,10.536 L16.4731144,10.536 Z M9.33311439,13.2 C7.35311439,13.2 5.73311439,11.58 5.73311439,9.6 C5.73311439,7.62 7.35311439,6 9.33311439,6 C11.3131144,6 12.9331144,7.62 12.9331144,9.6 C12.9331144,11.58 11.3131144,13.2 9.33311439,13.2 Z" id="path-1"></path>
    </defs>
    <g id="Page-1" stroke="none" stroke-width="1" fill="none" fill-rule="evenodd">
        <mask id="mask-2" fill="white">
            <use xlink:href="#path-1"></use>
        </mask>
        <use id="-↳Color" fill="#0057E2" xlink:href="#path-1"></use>
    </g>
</svg>