<?xml version="1.0" encoding="UTF-8"?>
<svg width="56px" height="67px" viewBox="0 0 56 67" version="1.1" xmlns="http://www.w3.org/2000/svg" xmlns:xlink="http://www.w3.org/1999/xlink">
    <!-- Generator: Sketch 53.2 (72643) - https://sketchapp.com -->
    <title>Untitled</title>
    <desc>Created with Sketch.</desc>
    <defs>
        <path d="M27.594,0.631 L0.257,12.841 C0.101,12.91 0,13.065 0,13.236 L0,13.236 L0,51.567 C0,51.805 0.195,52 0.436,51.999 L0.436,51.999 L20.736,51.955 C20.976,51.955 21.169,51.762 21.17,51.524 L21.17,51.524 L21.183,49.021 C21.183,46.96 22.091,45.014 23.673,43.681 L23.673,43.681 C23.889,43.486 23.855,43.138 23.605,42.989 L23.605,42.989 L17.371,39.264 C17.189,39.156 16.955,39.191 16.817,39.35 L16.817,39.35 C15.68,40.668 14.77,42.147 14.158,43.757 L14.158,43.757 C14.094,43.924 13.935,44.037 13.754,44.037 L13.754,44.037 L8.429,44.037 C8.189,44.037 7.994,43.843 7.994,43.604 L7.994,43.604 L7.994,18.39 C7.994,18.22 8.095,18.065 8.252,17.996 L8.252,17.996 L27.62,9.344 C27.733,9.294 27.861,9.294 27.973,9.342 L27.973,9.342 L47.707,18.014 C47.863,18.083 47.965,18.238 47.965,18.41 L47.965,18.41 L47.965,43.604 C47.965,43.842 47.771,44.036 47.53,44.036 L47.53,44.036 L42.241,44.036 C42.062,44.036 41.904,43.927 41.839,43.761 L41.839,43.761 C40.675,40.83 38.584,38.285 35.745,36.556 L35.745,36.556 L31.301,33.918 L31.305,33.91 L25.929,30.72 C25.126,30.229 24.67,29.345 24.743,28.411 L24.743,28.411 C24.85,27.049 26.038,26.021 27.415,26.135 L27.415,26.135 C28.077,26.186 28.679,26.491 29.111,26.993 L29.111,26.993 C29.541,27.495 29.752,28.134 29.699,28.799 L29.699,28.799 C29.689,28.928 29.666,29.051 29.634,29.173 L29.634,29.173 C29.584,29.363 29.659,29.563 29.827,29.664 L29.827,29.664 L36.017,33.362 C36.232,33.491 36.516,33.415 36.628,33.191 L36.628,33.191 C37.214,32.006 37.568,30.738 37.669,29.413 L37.669,29.413 C37.887,26.634 37.006,23.936 35.185,21.817 L35.185,21.817 C33.364,19.699 30.825,18.413 28.034,18.197 L28.034,18.197 C22.25,17.751 17.222,22.057 16.773,27.792 L16.773,27.792 C16.466,31.727 18.376,35.452 21.798,37.535 L21.798,37.535 L22.598,38.011 L22.595,38.016 L31.612,43.37 C33.82,44.716 35.069,47.144 34.872,49.712 L34.872,49.712 L34.872,49.736 L34.879,51.569 C34.88,51.808 35.074,52 35.314,52 L35.314,52 L55.525,52 C55.765,52 55.96,51.806 55.96,51.568 L55.96,51.568 L55.96,13.219 C55.96,13.048 55.858,12.893 55.701,12.824 L55.701,12.824 L27.947,0.629 C27.892,0.605 27.832,0.593 27.773,0.593 L27.773,0.593 C27.712,0.593 27.651,0.606 27.594,0.631 L27.594,0.631 Z" id="path-1"></path>
        <path d="M27.594,0.631 L0.257,12.841 C0.101,12.91 0,13.065 0,13.236 L0,13.236 L0,51.567 C0,51.805 0.195,52 0.436,51.999 L0.436,51.999 L20.736,51.955 C20.976,51.955 21.169,51.762 21.17,51.524 L21.17,51.524 L21.183,49.021 C21.183,46.96 22.091,45.014 23.673,43.681 L23.673,43.681 C23.889,43.486 23.855,43.138 23.605,42.989 L23.605,42.989 L17.371,39.264 C17.189,39.156 16.955,39.191 16.817,39.35 L16.817,39.35 C15.68,40.668 14.77,42.147 14.158,43.757 L14.158,43.757 C14.094,43.924 13.935,44.037 13.754,44.037 L13.754,44.037 L8.429,44.037 C8.189,44.037 7.994,43.843 7.994,43.604 L7.994,43.604 L7.994,18.39 C7.994,18.22 8.095,18.065 8.252,17.996 L8.252,17.996 L27.62,9.344 C27.733,9.294 27.861,9.294 27.973,9.342 L27.973,9.342 L47.707,18.014 C47.863,18.083 47.965,18.238 47.965,18.41 L47.965,18.41 L47.965,43.604 C47.965,43.842 47.771,44.036 47.53,44.036 L47.53,44.036 L42.241,44.036 C42.062,44.036 41.904,43.927 41.839,43.761 L41.839,43.761 C40.675,40.83 38.584,38.285 35.745,36.556 L35.745,36.556 L31.301,33.918 L31.305,33.91 L25.929,30.72 C25.126,30.229 24.67,29.345 24.743,28.411 L24.743,28.411 C24.85,27.049 26.038,26.021 27.415,26.135 L27.415,26.135 C28.077,26.186 28.679,26.491 29.111,26.993 L29.111,26.993 C29.541,27.495 29.752,28.134 29.699,28.799 L29.699,28.799 C29.689,28.928 29.666,29.051 29.634,29.173 L29.634,29.173 C29.584,29.363 29.659,29.563 29.827,29.664 L29.827,29.664 L36.017,33.362 C36.232,33.491 36.516,33.415 36.628,33.191 L36.628,33.191 C37.214,32.006 37.568,30.738 37.669,29.413 L37.669,29.413 C37.887,26.634 37.006,23.936 35.185,21.817 L35.185,21.817 C33.364,19.699 30.825,18.413 28.034,18.197 L28.034,18.197 C22.25,17.751 17.222,22.057 16.773,27.792 L16.773,27.792 C16.466,31.727 18.376,35.452 21.798,37.535 L21.798,37.535 L22.598,38.011 L22.595,38.016 L31.612,43.37 C33.82,44.716 35.069,47.144 34.872,49.712 L34.872,49.712 L34.872,49.736 L34.879,51.569 C34.88,51.808 35.074,52 35.314,52 L35.314,52 L55.525,52 C55.765,52 55.96,51.806 55.96,51.568 L55.96,51.568 L55.96,13.219 C55.96,13.048 55.858,12.893 55.701,12.824 L55.701,12.824 L27.947,0.629 C27.891,0.605 27.832,0.592 27.773,0.592 L27.773,0.592 C27.712,0.592 27.651,0.606 27.594,0.631 L27.594,0.631 Z" id="path-3"></path>
    </defs>
    <g id="Page-1" stroke="none" stroke-width="1" fill="none" fill-rule="evenodd">
        <g id="Group-11">
            <path d="M27.5941,14.0656 L0.2571,26.2746 C0.1011,26.3446 0.0001,26.4996 0.0001,26.6696 L0.0001,65.0016 C0.0001,65.2406 0.1951,65.4346 0.4361,65.4336 L20.7371,65.3896 C20.9761,65.3896 21.1691,65.1966 21.1701,64.9596 L21.1831,62.4556 C21.1831,60.3956 22.0911,58.4486 23.6731,57.1156 C23.8891,56.9206 23.8551,56.5736 23.6051,56.4236 L17.3711,52.6986 C17.1901,52.5906 16.9541,52.6256 16.8171,52.7846 C15.6801,54.1026 14.7701,55.5826 14.1581,57.1906 C14.0941,57.3586 13.9351,57.4716 13.7541,57.4716 L8.4291,57.4716 C8.1891,57.4716 7.9941,57.2776 7.9941,57.0396 L7.9941,31.8246 C7.9941,31.6546 8.0951,31.4996 8.2511,31.4306 L27.6201,22.7786 C27.7331,22.7286 27.8611,22.7286 27.9731,22.7776 L47.7061,31.4486 C47.8641,31.5176 47.9651,31.6726 47.9651,31.8446 L47.9651,57.0386 C47.9651,57.2766 47.7711,57.4706 47.5311,57.4706 L42.2401,57.4706 C42.0621,57.4706 41.9041,57.3606 41.8381,57.1956 C40.6751,54.2646 38.5841,51.7206 35.7441,49.9906 L31.3011,47.3526 L31.3051,47.3456 L25.9291,44.1546 C25.1251,43.6646 24.6701,42.7796 24.7431,41.8456 C24.8501,40.4836 26.0381,39.4556 27.4151,39.5696 C28.0761,39.6206 28.6791,39.9256 29.1111,40.4276 C29.5411,40.9306 29.7511,41.5696 29.6981,42.2346 C29.6891,42.3626 29.6661,42.4856 29.6341,42.6076 C29.5841,42.7976 29.6581,42.9976 29.8271,43.0986 L36.0171,46.7976 C36.2321,46.9256 36.5161,46.8496 36.6271,46.6256 C37.2131,45.4406 37.5681,44.1726 37.6691,42.8486 C37.8871,40.0686 37.0051,37.3706 35.1851,35.2526 C33.3651,33.1336 30.8251,31.8476 28.0331,31.6306 C22.2501,31.1866 17.2221,35.4916 16.7731,41.2276 C16.4661,45.1616 18.3751,48.8866 21.7971,50.9696 L22.5981,51.4456 L22.5951,51.4516 L31.6121,56.8046 C33.8201,58.1506 35.0691,60.5796 34.8711,63.1466 L34.8711,63.1706 L34.8791,65.0036 C34.8801,65.2426 35.0741,65.4346 35.3141,65.4346 L55.5251,65.4346 C55.7651,65.4346 55.9591,65.2406 55.9591,65.0026 L55.9591,26.6546 C55.9591,26.4826 55.8581,26.3276 55.7001,26.2586 L27.9481,14.0646 C27.8341,14.0146 27.7061,14.0156 27.5941,14.0656" id="Fill-1" fill="#00C9FF"></path>
            <g id="Group-5" transform="translate(0.000000, 13.434800)">
                <mask id="mask-2" fill="white">
                    <use xlink:href="#path-1"></use>
                </mask>
                <g id="Clip-4"></g>
                <polygon id="Fill-3" fill="#00C9FF" mask="url(#mask-2)" points="0 52.565 56 52.565 56 0.565 0 0.565"></polygon>
            </g>
            <g id="Group-8" transform="translate(0.000000, 13.434800)">
                <mask id="mask-4" fill="white">
                    <use xlink:href="#path-3"></use>
                </mask>
                <g id="Clip-7"></g>
                <polygon id="Fill-6" fill="#00C9FF" mask="url(#mask-4)" points="-5 57 60.959 57 60.959 -4.407 -5 -4.407"></polygon>
            </g>
            <path d="M55.0004,7.0002 C55.0004,10.8662 51.8654,14.0002 48.0004,14.0002 C44.1344,14.0002 41.0004,10.8662 41.0004,7.0002 C41.0004,3.1342 44.1344,0.0002 48.0004,0.0002 C51.8654,0.0002 55.0004,3.1342 55.0004,7.0002" id="Fill-9" fill="#00C9FF"></path>
        </g>
    </g>
</svg>