<?xml version="1.0" encoding="UTF-8"?>
<svg width="56px" height="66px" viewBox="0 0 56 66" version="1.1" xmlns="http://www.w3.org/2000/svg" xmlns:xlink="http://www.w3.org/1999/xlink">
    <!-- Generator: Sketch 53.2 (72643) - https://sketchapp.com -->
    <title>Untitled</title>
    <desc>Created with Sketch.</desc>
    <defs>
        <polygon id="path-1" points="0 0.0274780336 55.9596948 0.0274780336 55.9596948 51.4347703 0 51.4347703"></polygon>
    </defs>
    <g id="Page-1" stroke="none" stroke-width="1" fill="none" fill-rule="evenodd">
        <g id="app-store-icon" transform="translate(-32.000000, -23.000000)">
            <path d="M2.27373675e-13,83.4 L2.27373675e-13,36.6 C2.27373675e-13,25 0.4,15.6 8,8 C15.6,0.4 25,2.27373675e-13 36.6,2.27373675e-13 L83.4,2.27373675e-13 C95,2.27373675e-13 104.4,0.4 112,8 C119.6,15.6 120,25 120,36.6 L120,83.4 C120,95 119.6,104.4 112,112 C104.4,119.6 95,120 83.4,120 L36.6,120 C25,120 15.6,119.6 8,112 C0.4,104.4 2.27373675e-13,95 2.27373675e-13,83.4 Z" id="app-icon-base" fill="#00C9FF"></path>
            <g id="Logo" transform="translate(32.000000, 23.000000)">
                <g id="Group-3" transform="translate(0.000000, 14.000000)">
                    <mask id="mask-2" fill="white">
                        <use xlink:href="#path-1"></use>
                    </mask>
                    <g id="Clip-2"></g>
                    <path d="M27.5940062,0.0653757774 L0.256720763,12.275183 C0.100512399,12.3449493 -2.4651504e-05,12.499581 -2.4651504e-05,12.6700483 L-2.4651504e-05,51.0010732 C-2.4651504e-05,51.2404475 0.195133089,51.4343611 0.435444167,51.4338292 L20.7369027,51.3897189 C20.9756936,51.3891869 21.1692901,51.19691 21.1704816,50.9590907 L21.1828895,48.4556039 C21.1828895,46.3952255 22.091092,44.4488466 23.6733077,43.1154295 C23.8890905,42.9203702 23.8547428,42.5732161 23.6048587,42.4238629 L17.3711096,38.6985852 C17.1901676,38.5904371 16.9546635,38.6253408 16.8171492,38.784719 C15.680304,40.1021369 14.769431,41.5823702 14.158238,43.1908427 C14.0942674,43.359223 13.9353884,43.471954 13.7546107,43.471954 L8.42877652,43.471954 C8.18879413,43.471954 7.99425268,43.2781631 7.99425268,43.039198 L7.99425268,17.8249428 C7.99425268,17.6544756 8.09474864,17.4998439 8.25095701,17.4301185 L27.6200135,8.77868165 C27.7323011,8.72855626 27.8606533,8.72814708 27.9732285,8.77761776 L47.7063466,17.4484091 C47.8638286,17.5176026 47.965475,17.672889 47.965475,17.8443383 L47.965475,43.0380523 C47.965475,43.2770583 47.7708924,43.4708083 47.5309101,43.4708083 L42.2402043,43.4708083 C42.0616041,43.4708083 41.9037523,43.3609007 41.8380971,43.1954665 C40.675409,40.2643795 38.5846327,37.7203423 35.7440399,35.9901777 L31.300935,33.3519866 L31.3048382,33.3453987 L25.9290025,30.1544372 C25.1248704,29.6644769 24.6702967,28.7797332 24.7435938,27.845396 C24.8498418,26.4838678 26.0387839,25.4559496 27.4150773,25.5695808 C28.0764772,25.6206882 28.6787134,25.925696 29.1107721,26.4276455 C29.5415572,26.9302906 29.7509717,27.5694813 29.6989981,28.2347372 C29.6890964,28.3623217 29.6662527,28.4862234 29.6342879,28.6074246 C29.5841632,28.7973691 29.6583642,28.997666 29.8274324,29.0987352 L36.0170553,32.7975794 C36.2320164,32.9260231 36.5163715,32.849628 36.627139,32.6256391 C37.2135161,31.4404704 37.5674295,30.1728915 37.6696511,28.8483947 C37.8870362,26.0682976 37.0055806,23.3707336 35.1852725,21.2520461 C33.3650465,19.1333177 30.8252842,17.8476527 28.0338712,17.6311929 C22.2505051,17.1862022 17.2217215,21.4919114 16.7727354,27.2271147 C16.465701,31.1619779 18.3754119,34.8869282 21.797205,36.9696891 L22.5982145,37.445246 L22.5946401,37.451261 L31.611585,42.8050613 C33.8201544,44.1506722 35.0687941,46.5794823 34.8718697,49.1467204 C34.8712945,49.1546177 34.8710069,49.1625969 34.871048,49.1704942 L34.8794706,51.0040194 C34.8805799,51.2422479 35.0747927,51.4347703 35.3139944,51.4347703 L55.5251874,51.4347703 C55.7651698,51.4347703 55.9597112,51.2410204 55.9597112,51.0020144 L55.9597112,12.6544582 C55.9597112,12.483009 55.8580649,12.3277226 55.7005417,12.2584882 L27.9472211,0.0643118917 C27.8346048,0.0148412058 27.7062527,0.0152094739 27.5940062,0.0653757774" id="Fill-1" fill="#FEFEFE" mask="url(#mask-2)"></path>
                </g>
                <path d="M55,7 C55,10.8659896 51.865958,14 48.0000203,14 C44.1340013,14 41,10.8659896 41,7 C41,3.13401044 44.1340013,0 48.0000203,0 C51.865958,0 55,3.13401044 55,7" id="Fill-4" fill="#FEFEFE"></path>
            </g>
        </g>
    </g>
</svg>