<?xml version="1.0" encoding="UTF-8"?>
<svg width="219px" height="62px" viewBox="0 0 219 62" version="1.1" xmlns="http://www.w3.org/2000/svg" xmlns:xlink="http://www.w3.org/1999/xlink">
    <!-- Generator: Sketch 53.2 (72643) - https://sketchapp.com -->
    <title>Untitled</title>
    <desc>Created with Sketch.</desc>
    <defs>
        <path d="M0.906,7.692 C0.906,11.95 4.637,13.447 8.193,14.389 L8.193,14.389 C11.785,15.333 15.341,15.722 15.341,17.771 L15.341,17.771 C15.341,19.495 13.319,20.144 11.367,20.144 L11.367,20.144 C8.611,20.144 6.798,19.266 6.66,16.535 L6.66,16.535 L0.174,16.535 C0.209,22.486 5.264,24.827 10.982,24.827 L10.982,24.827 C16.457,24.827 21.826,22.94 21.826,17.055 L21.826,17.055 C21.826,12.861 18.199,11.3 14.608,10.357 L14.608,10.357 C10.982,9.414 7.391,9.09 7.391,7.301 L7.391,7.301 C7.391,5.773 9.135,5.318 10.529,5.318 L10.529,5.318 C12.516,5.318 14.643,6.001 14.539,8.114 L14.539,8.114 L21.025,8.114 C20.989,2.879 16.003,0.636 11.052,0.636 L11.052,0.636 C6.38,0.636 0.906,2.619 0.906,7.692 L0.906,7.692 Z" id="path-1"></path>
        <path d="M0.591,12.732 C0.591,19.462 5.18,24.827 12.26,24.827 L12.26,24.827 C18.193,24.827 22.618,21.315 22.947,15.333 L22.947,15.333 L16.849,15.333 C16.62,17.998 14.981,19.624 12.129,19.624 L12.129,19.624 C8.195,19.624 6.687,16.178 6.687,12.732 L6.687,12.732 C6.687,9.285 8.195,5.839 12.129,5.839 L12.129,5.839 C14.686,5.839 16.522,7.074 16.849,9.414 L16.849,9.414 L22.947,9.414 C22.782,3.822 17.309,0.636 12.26,0.636 L12.26,0.636 C5.18,0.636 0.591,6.001 0.591,12.732 L0.591,12.732 Z" id="path-3"></path>
        <path d="M0.128,6.752 C0.128,10.386 3.074,13.332 6.707,13.332 L6.707,13.332 C10.341,13.332 13.287,10.386 13.287,6.752 L13.287,6.752 C13.287,3.119 10.341,0.174 6.707,0.174 L6.707,0.174 C3.074,0.174 0.128,3.119 0.128,6.752 L0.128,6.752 Z" id="path-5"></path>
    </defs>
    <g id="Page-1" stroke="none" stroke-width="1" fill="none" fill-rule="evenodd">
        <g id="Group-36">
            <path d="M6.6594,53.5352 C6.7984,56.2662 8.6114,57.1442 11.3664,57.1442 C13.3184,57.1442 15.3414,56.4942 15.3414,54.7702 C15.3414,52.7232 11.7844,52.3322 8.1934,51.3892 C4.6374,50.4472 0.9054,48.9512 0.9054,44.6912 C0.9054,39.6192 6.3794,37.6362 11.0524,37.6362 C16.0034,37.6362 20.9894,39.8792 21.0244,45.1142 L14.5384,45.1142 C14.6434,43.0002 12.5164,42.3182 10.5294,42.3182 C9.1354,42.3182 7.3904,42.7722 7.3904,44.3012 C7.3904,46.0902 10.9824,46.4142 14.6084,47.3572 C18.1994,48.3002 21.8264,49.8612 21.8264,54.0552 C21.8264,59.9402 16.4564,61.8262 10.9824,61.8262 C5.2634,61.8262 0.2094,59.4852 0.1744,53.5352 L6.6594,53.5352 Z" id="Fill-1" fill="#FFFFFF"></path>
            <g id="Group-6" transform="translate(0.000000, 37.000000)">
                <mask id="mask-2" fill="white">
                    <use xlink:href="#path-1"></use>
                </mask>
                <g id="Clip-4"></g>
                <polygon id="Fill-3" fill="#FFFFFF" mask="url(#mask-2)" points="0.174 24.826 21.879 24.826 21.879 0.617 0.174 0.617"></polygon>
                <polygon id="Fill-5" fill="#FFFFFF" mask="url(#mask-2)" points="-4 29 26 29 26 -3.538 -4 -3.538"></polygon>
            </g>
            <g id="Group-15" transform="translate(22.000000, 37.000000)" fill="#FFFFFF">
                <polygon id="Fill-7" points="24.9211 24.8272 18.4261 24.8272 12.8331 7.3302 7.1071 24.8272 0.7121 24.8272 9.6521 0.6192 15.9811 0.6192"></polygon>
                <polygon id="Fill-9" points="137.2175 7.3307 131.4915 24.8267 125.0965 24.8267 134.0355 0.6177 140.3645 0.6177 149.3055 24.8267 142.8095 24.8267"></polygon>
                <polygon id="Fill-11" points="48.2952 0.6187 48.2952 24.8267 41.8252 24.8267 33.4192 9.7347 33.3522 9.7347 33.3522 24.8267 27.4252 24.8267 27.4252 0.6187 33.8952 0.6187 42.3012 15.5357 42.3682 15.5357 42.3682 0.6187"></polygon>
                <path d="M68.8493,9.4142 C68.5213,7.0742 66.6853,5.8382 64.1293,5.8382 C60.1943,5.8382 58.6873,9.2852 58.6873,12.7312 C58.6873,16.1772 60.1943,19.6232 64.1293,19.6232 C66.9813,19.6232 68.6203,17.9982 68.8493,15.3322 L74.9463,15.3322 C74.6183,21.3152 70.1933,24.8262 64.2603,24.8262 C57.1793,24.8262 52.5903,19.4612 52.5903,12.7312 C52.5903,6.0002 57.1793,0.6362 64.2603,0.6362 C69.3083,0.6362 74.7823,3.8222 74.9463,9.4142 L68.8493,9.4142 Z" id="Fill-13"></path>
            </g>
            <g id="Group-18" transform="translate(74.000000, 37.000000)">
                <mask id="mask-4" fill="white">
                    <use xlink:href="#path-3"></use>
                </mask>
                <g id="Clip-17"></g>
                <polygon id="Fill-16" fill="#FFFFFF" mask="url(#mask-4)" points="0.47 24.826 23.009 24.826 23.009 0.617 0.47 0.617"></polygon>
            </g>
            <g id="Group-29" transform="translate(99.000000, 0.000000)" fill="#FFFFFF">
                <polygon id="Fill-19" points="21.383 43.0421 14.12 43.0421 14.12 61.8261 7.778 61.8261 7.778 43.0421 0.513 43.0421 0.513 37.6171 21.383 37.6171"></polygon>
                <path d="M45.592,51.5318 C45.592,58.4068 42.405,61.8258 35.156,61.8258 C27.91,61.8258 24.722,58.4068 24.722,51.5318 L24.722,37.6168 L30.963,37.6168 L30.963,51.8978 C30.963,54.9518 32.104,56.5128 35.156,56.5128 C38.211,56.5128 39.351,54.9518 39.351,51.8978 L39.351,37.6168 L45.592,37.6168 L45.592,51.5318 Z" id="Fill-21"></path>
                <path d="M81.1575,48.128 L86.4805,48.128 C88.3925,48.128 89.4155,47.111 89.4155,45.279 C89.4155,43.483 87.9825,42.67 86.2085,42.67 L81.1575,42.67 L81.1575,48.128 Z M74.8095,37.617 L87.2315,37.617 C91.5325,37.617 95.7635,39.55 95.7635,44.432 C95.7635,47.043 94.5015,49.518 91.9415,50.501 L91.9415,50.57 C94.5345,51.18 95.2865,54.062 95.4905,56.367 C95.5585,57.384 95.6605,60.944 96.5135,61.826 L90.2355,61.826 C89.6895,61.013 89.5865,58.638 89.5175,57.961 C89.3475,55.52 88.9385,53.01 85.9695,53.01 L81.1575,53.01 L81.1575,61.826 L74.8095,61.826 L74.8095,37.617 Z" id="Fill-23"></path>
                <polygon id="Fill-25" points="111.281 52.8072 111.281 61.8262 105.122 61.8262 105.122 52.8072 96.514 37.6172 103.5 37.6172 108.202 47.4492 112.902 37.6172 119.888 37.6172"></polygon>
                <path d="M31.2868,6.7525 C31.2868,10.3865 28.3408,13.3315 24.7078,13.3315 C21.0748,13.3315 18.1288,10.3865 18.1288,6.7525 C18.1288,3.1195 21.0748,0.1735 24.7078,0.1735 C28.3408,0.1735 31.2868,3.1195 31.2868,6.7525" id="Fill-27"></path>
            </g>
            <g id="Group-33" transform="translate(117.000000, 0.000000)">
                <mask id="mask-6" fill="white">
                    <use xlink:href="#path-5"></use>
                </mask>
                <g id="Clip-31"></g>
                <polygon id="Fill-30" fill="#FFFFFF" mask="url(#mask-6)" points="0.044 13.408 13.4 13.408 13.4 0.052 0.044 0.052"></polygon>
                <polygon id="Fill-32" fill="#FFFFFF" mask="url(#mask-6)" points="-4.045 17.505 17.461 17.505 17.461 -4 -4.045 -4"></polygon>
            </g>
            <path d="M110.1062,15.089 L110.1052,15.089 L110.1052,15.088 C110.0552,15.066 110.0022,15.089 109.9482,15.089 C109.8952,15.089 109.8412,15.066 109.7922,15.088 L109.7922,15.089 L109.7902,15.089 L89.4962,24.372 L92.5502,30.939 L109.8142,23.042 C109.8562,23.023 109.9022,23.045 109.9482,23.042 C109.9942,23.045 110.0402,23.023 110.0832,23.042 L127.3462,30.939 L130.4002,24.372 L110.1062,15.089 Z" id="Fill-34" fill="#FFFFFF"></path>
        </g>
    </g>
</svg>