<?xml version="1.0" encoding="UTF-8"?>
<svg width="219px" height="62px" viewBox="0 0 219 62" version="1.1" xmlns="http://www.w3.org/2000/svg" xmlns:xlink="http://www.w3.org/1999/xlink">
    <!-- Generator: Sketch 53.2 (72643) - https://sketchapp.com -->
    <title>Untitled</title>
    <desc>Created with Sketch.</desc>
    <defs>
        <path d="M0.906,7.692 C0.906,11.95 4.637,13.446 8.193,14.389 L8.193,14.389 C11.785,15.333 15.341,15.722 15.341,17.771 L15.341,17.771 C15.341,19.494 13.319,20.144 11.367,20.144 L11.367,20.144 C8.611,20.144 6.798,19.266 6.66,16.535 L6.66,16.535 L0.174,16.535 C0.209,22.486 5.264,24.826 10.982,24.826 L10.982,24.826 C16.457,24.826 21.826,22.94 21.826,17.055 L21.826,17.055 C21.826,12.86 18.199,11.3 14.608,10.357 L14.608,10.357 C10.982,9.414 7.391,9.09 7.391,7.302 L7.391,7.302 C7.391,5.773 9.135,5.318 10.529,5.318 L10.529,5.318 C12.516,5.318 14.643,6.001 14.539,8.114 L14.539,8.114 L21.025,8.114 C20.989,2.878 16.003,0.636 11.052,0.636 L11.052,0.636 C6.38,0.636 0.906,2.619 0.906,7.692 L0.906,7.692 Z" id="path-1"></path>
        <path d="M0.591,12.732 C0.591,19.462 5.18,24.826 12.26,24.826 L12.26,24.826 C18.193,24.826 22.618,21.315 22.947,15.333 L22.947,15.333 L16.849,15.333 C16.62,17.998 14.981,19.624 12.129,19.624 L12.129,19.624 C8.195,19.624 6.687,16.177 6.687,12.732 L6.687,12.732 C6.687,9.285 8.195,5.839 12.129,5.839 L12.129,5.839 C14.686,5.839 16.522,7.073 16.849,9.414 L16.849,9.414 L22.947,9.414 C22.782,3.822 17.309,0.636 12.26,0.636 L12.26,0.636 C5.18,0.636 0.591,6.001 0.591,12.732 L0.591,12.732 Z" id="path-3"></path>
        <path d="M0.128,6.753 C0.128,10.386 3.074,13.332 6.707,13.332 L6.707,13.332 C10.341,13.332 13.287,10.386 13.287,6.753 L13.287,6.753 C13.287,3.12 10.341,0.174 6.707,0.174 L6.707,0.174 C3.074,0.174 0.128,3.12 0.128,6.753 L0.128,6.753 Z" id="path-5"></path>
    </defs>
    <g id="Page-1" stroke="none" stroke-width="1" fill="none" fill-rule="evenodd">
        <g id="Group-36-Copy">
            <path d="M6.6594,53.5354 C6.7984,56.2664 8.6114,57.1434 11.3664,57.1434 C13.3184,57.1434 15.3414,56.4944 15.3414,54.7704 C15.3414,52.7224 11.7844,52.3324 8.1934,51.3894 C4.6374,50.4464 0.9054,48.9504 0.9054,44.6914 C0.9054,39.6194 6.3794,37.6364 11.0524,37.6364 C16.0034,37.6364 20.9894,39.8784 21.0244,45.1144 L14.5384,45.1144 C14.6434,43.0004 12.5164,42.3184 10.5294,42.3184 C9.1354,42.3184 7.3904,42.7724 7.3904,44.3014 C7.3904,46.0904 10.9824,46.4134 14.6084,47.3574 C18.1994,48.3004 21.8264,49.8604 21.8264,54.0554 C21.8264,59.9404 16.4564,61.8264 10.9824,61.8264 C5.2634,61.8264 0.2094,59.4854 0.1744,53.5354 L6.6594,53.5354 Z" id="Fill-1" fill="#00C9FF"></path>
            <g id="Group-6" transform="translate(0.000000, 37.000000)">
                <mask id="mask-2" fill="white">
                    <use xlink:href="#path-1"></use>
                </mask>
                <g id="Clip-4"></g>
                <polygon id="Fill-3" fill="#00C9FF" mask="url(#mask-2)" points="0.174 24.826 21.879 24.826 21.879 0.618 0.174 0.618"></polygon>
                <polygon id="Fill-5" fill="#00C9FF" mask="url(#mask-2)" points="-4 29 26 29 26 -3.538 -4 -3.538"></polygon>
            </g>
            <g id="Group-15" transform="translate(22.000000, 37.000000)" fill="#00C9FF">
                <polygon id="Fill-7" points="24.9211 24.8274 18.4261 24.8274 12.8331 7.3304 7.1071 24.8274 0.7121 24.8274 9.6521 0.6184 15.9811 0.6184"></polygon>
                <polygon id="Fill-9" points="137.2175 7.3304 131.4915 24.8264 125.0965 24.8264 134.0355 0.6174 140.3645 0.6174 149.3055 24.8264 142.8095 24.8264"></polygon>
                <polygon id="Fill-11" points="48.2952 0.6185 48.2952 24.8275 41.8252 24.8275 33.4192 9.7345 33.3522 9.7345 33.3522 24.8275 27.4252 24.8275 27.4252 0.6185 33.8952 0.6185 42.3012 15.5365 42.3682 15.5365 42.3682 0.6185"></polygon>
                <path d="M68.8493,9.4144 C68.5213,7.0734 66.6853,5.8384 64.1293,5.8384 C60.1943,5.8384 58.6873,9.2854 58.6873,12.7314 C58.6873,16.1774 60.1943,19.6234 64.1293,19.6234 C66.9813,19.6234 68.6203,17.9984 68.8493,15.3324 L74.9463,15.3324 C74.6183,21.3144 70.1933,24.8264 64.2603,24.8264 C57.1793,24.8264 52.5903,19.4614 52.5903,12.7314 C52.5903,6.0004 57.1793,0.6364 64.2603,0.6364 C69.3083,0.6364 74.7823,3.8224 74.9463,9.4144 L68.8493,9.4144 Z" id="Fill-13"></path>
            </g>
            <g id="Group-18" transform="translate(74.000000, 37.000000)">
                <mask id="mask-4" fill="white">
                    <use xlink:href="#path-3"></use>
                </mask>
                <g id="Clip-17"></g>
                <polygon id="Fill-16" fill="#00C9FF" mask="url(#mask-4)" points="0.47 24.826 23.009 24.826 23.009 0.618 0.47 0.618"></polygon>
            </g>
            <g id="Group-29" transform="translate(99.000000, 0.000000)" fill="#00C9FF">
                <polygon id="Fill-19" points="21.383 43.0423 14.12 43.0423 14.12 61.8263 7.778 61.8263 7.778 43.0423 0.513 43.0423 0.513 37.6173 21.383 37.6173"></polygon>
                <path d="M45.592,51.5315 C45.592,58.4065 42.405,61.8255 35.156,61.8255 C27.91,61.8255 24.722,58.4065 24.722,51.5315 L24.722,37.6175 L30.963,37.6175 L30.963,51.8975 C30.963,54.9525 32.104,56.5125 35.156,56.5125 C38.211,56.5125 39.351,54.9525 39.351,51.8975 L39.351,37.6175 L45.592,37.6175 L45.592,51.5315 Z" id="Fill-21"></path>
                <path d="M81.1575,48.1277 L86.4805,48.1277 C88.3925,48.1277 89.4155,47.1117 89.4155,45.2797 C89.4155,43.4827 87.9825,42.6697 86.2085,42.6697 L81.1575,42.6697 L81.1575,48.1277 Z M74.8095,37.6177 L87.2315,37.6177 C91.5325,37.6177 95.7635,39.5497 95.7635,44.4317 C95.7635,47.0427 94.5015,49.5177 91.9415,50.5017 L91.9415,50.5697 C94.5345,51.1797 95.2865,54.0627 95.4905,56.3667 C95.5585,57.3847 95.6605,60.9447 96.5135,61.8257 L90.2355,61.8257 C89.6895,61.0127 89.5865,58.6387 89.5175,57.9607 C89.3475,55.5197 88.9385,53.0107 85.9695,53.0107 L81.1575,53.0107 L81.1575,61.8257 L74.8095,61.8257 L74.8095,37.6177 Z" id="Fill-23"></path>
                <polygon id="Fill-25" points="111.281 52.8069 111.281 61.8259 105.122 61.8259 105.122 52.8069 96.514 37.6179 103.5 37.6179 108.202 47.4499 112.902 37.6179 119.888 37.6179"></polygon>
                <path d="M31.2868,6.7527 C31.2868,10.3857 28.3408,13.3317 24.7078,13.3317 C21.0748,13.3317 18.1288,10.3857 18.1288,6.7527 C18.1288,3.1197 21.0748,0.1737 24.7078,0.1737 C28.3408,0.1737 31.2868,3.1197 31.2868,6.7527" id="Fill-27"></path>
            </g>
            <g id="Group-33" transform="translate(117.000000, 0.000000)">
                <mask id="mask-6" fill="white">
                    <use xlink:href="#path-5"></use>
                </mask>
                <g id="Clip-31"></g>
                <polygon id="Fill-30" fill="#00C9FF" mask="url(#mask-6)" points="0.044 13.408 13.4 13.408 13.4 0.052 0.044 0.052"></polygon>
                <polygon id="Fill-32" fill="#00C9FF" mask="url(#mask-6)" points="-4.045 17.506 17.461 17.506 17.461 -4 -4.045 -4"></polygon>
            </g>
            <path d="M110.1062,15.0887 C110.1062,15.0887 110.1062,15.0887 110.1052,15.0887 L110.1052,15.0877 C110.0552,15.0657 110.0022,15.0887 109.9482,15.0887 C109.8952,15.0887 109.8412,15.0657 109.7922,15.0877 L109.7922,15.0887 C109.7912,15.0887 109.7912,15.0887 109.7902,15.0887 L89.4962,24.3717 L92.5502,30.9387 L109.8142,23.0427 C109.8562,23.0227 109.9022,23.0447 109.9482,23.0417 C109.9942,23.0447 110.0402,23.0227 110.0832,23.0427 L127.3462,30.9387 L130.4002,24.3717 L110.1062,15.0887 Z" id="Fill-34" fill="#00C9FF"></path>
        </g>
    </g>
</svg>